<?xml version="1.0" encoding="utf-8" standalone="no"?>
<!DOCTYPE svg PUBLIC "-//W3C//DTD SVG 1.1//EN"
  "http://www.w3.org/Graphics/SVG/1.1/DTD/svg11.dtd">
<!-- Created with matplotlib (http://matplotlib.org/) -->
<svg height="72pt" version="1.1" viewBox="0 0 72 72" width="72pt" xmlns="http://www.w3.org/2000/svg" xmlns:xlink="http://www.w3.org/1999/xlink">
 <defs>
  <style type="text/css">
*{stroke-linecap:butt;stroke-linejoin:round;}
  </style>
 </defs>
 <g id="figure_1">
  <g id="patch_1">
   <path d="M 0 72 
L 72 72 
L 72 0 
L 0 0 
z
" style="fill:#ffffff;"/>
  </g>
  <g id="axes_1">
   <g id="patch_2">
    <path d="M 61.92 36 
C 61.92 32.596217 61.249529 29.225531 59.946957 26.080845 
C 58.644386 22.93616 56.735046 20.07863 54.328208 17.671792 
C 51.92137 15.264954 49.06384 13.355614 45.919155 12.053043 
C 42.774469 10.750471 39.403783 10.08 36 10.08 
C 32.596217 10.08 29.225531 10.750471 26.080845 12.053043 
C 22.93616 13.355614 20.07863 15.264954 17.671792 17.671792 
C 15.264954 20.07863 13.355614 22.93616 12.053043 26.080845 
C 10.750471 29.225531 10.08 32.596217 10.08 36 
C 10.08 39.403783 10.750471 42.774469 12.053043 45.919155 
C 13.355614 49.06384 15.264954 51.92137 17.671792 54.328208 
C 20.07863 56.735046 22.93616 58.644386 26.080845 59.946957 
C 29.225531 61.249529 32.596217 61.92 36 61.92 
C 39.403783 61.92 42.774469 61.249529 45.919155 59.946957 
C 49.06384 58.644386 51.92137 56.735046 54.328208 54.328208 
C 56.735046 51.92137 58.644386 49.06384 59.946957 45.919155 
C 61.249529 42.774469 61.92 39.403783 61.92 36 
M 36 36 
M 61.92 36 
z
" style="fill:#278c18;"/>
   </g>
   <g id="patch_3">
    <path d="M 59.04 36 
C 59.04 36 59.04 36 59.04 36 
L 36 36 
L 59.04 36 
z
" style="fill:#278c18;"/>
   </g>
   <g id="patch_4">
    <path d="M 59.04 36 
C 59.04 32.974415 58.444026 29.97825 57.286184 27.182974 
C 56.128343 24.387698 54.431152 21.847671 52.29174 19.70826 
C 50.152329 17.568848 47.612302 15.871657 44.817026 14.713816 
C 42.02175 13.555974 39.025585 12.96 36 12.96 
C 32.974415 12.96 29.97825 13.555974 27.182974 14.713816 
C 24.387698 15.871657 21.847671 17.568848 19.70826 19.70826 
C 17.568848 21.847671 15.871657 24.387698 14.713816 27.182974 
C 13.555974 29.97825 12.96 32.974415 12.96 36 
C 12.96 39.025585 13.555974 42.02175 14.713816 44.817026 
C 15.871657 47.612302 17.568848 50.152329 19.70826 52.29174 
C 21.847671 54.431152 24.387698 56.128343 27.182974 57.286184 
C 29.97825 58.444026 32.974415 59.04 36 59.04 
C 39.025585 59.04 42.02175 58.444026 44.817026 57.286184 
C 47.612302 56.128343 50.152329 54.431152 52.29174 52.29174 
C 54.431152 50.152329 56.128343 47.612302 57.286184 44.817026 
C 58.444026 42.02175 59.04 39.025585 59.04 36 
M 36 36 
M 59.04 36 
z
" style="fill:#67c8f3;"/>
   </g>
   <g id="patch_5">
    <path d="M 59.04 36 
C 59.04 36 59.04 36 59.04 36 
L 36 36 
L 59.04 36 
z
" style="fill:#103129;"/>
   </g>
   <g id="patch_6">
    <path d="M 56.16 36 
C 56.16 36 56.16 36 56.16 36 
L 36 36 
L 56.16 36 
z
" style="fill:#278c18;"/>
   </g>
   <g id="patch_7">
    <path d="M 56.16 36 
C 56.16 36 56.16 36 56.16 36 
L 36 36 
L 56.16 36 
z
" style="fill:#67c8f3;"/>
   </g>
   <g id="patch_8">
    <path d="M 56.16 36 
C 56.16 33.352613 55.638522 30.730969 54.625411 28.285102 
C 53.6123 25.839235 52.127258 23.616713 50.255273 21.744727 
C 48.383287 19.872742 46.160765 18.3877 43.714898 17.374589 
C 41.269031 16.361478 38.647387 15.84 36 15.84 
C 33.352613 15.84 30.730969 16.361478 28.285102 17.374589 
C 25.839235 18.3877 23.616713 19.872742 21.744727 21.744727 
C 19.872742 23.616713 18.3877 25.839235 17.374589 28.285102 
C 16.361478 30.730969 15.84 33.352613 15.84 36 
C 15.84 38.647387 16.361478 41.269031 17.374589 43.714898 
C 18.3877 46.160765 19.872742 48.383287 21.744727 50.255273 
C 23.616713 52.127258 25.839235 53.6123 28.285102 54.625411 
C 30.730969 55.638522 33.352613 56.16 36 56.16 
C 38.647387 56.16 41.269031 55.638522 43.714898 54.625411 
C 46.160765 53.6123 48.383287 52.127258 50.255273 50.255273 
C 52.127258 48.383287 53.6123 46.160765 54.625411 43.714898 
C 55.638522 41.269031 56.16 38.647387 56.16 36 
M 36 36 
M 56.16 36 
z
" style="fill:#f88b10;"/>
   </g>
   <g id="patch_9">
    <path d="M 56.16 36 
C 56.16 36 56.16 36 56.16 36 
L 36 36 
L 56.16 36 
z
" style="fill:#103129;"/>
   </g>
   <g id="patch_10">
    <path d="M 53.28 36 
C 53.28 36 53.28 36 53.28 36 
L 36 36 
L 53.28 36 
z
" style="fill:#278c18;"/>
   </g>
   <g id="patch_11">
    <path d="M 53.28 36 
C 53.28 36 53.28 36 53.28 36 
L 36 36 
L 53.28 36 
z
" style="fill:#67c8f3;"/>
   </g>
   <g id="patch_12">
    <path d="M 53.28 36 
C 53.28 33.181404 52.590375 30.405151 51.27147 27.914173 
C 49.952565 25.423195 48.044006 23.292333 45.712801 21.708048 
C 43.381595 20.123762 40.697783 19.133651 37.896209 18.824355 
C 35.094635 18.515058 32.259471 18.895868 29.638807 19.933462 
C 27.018144 20.971057 24.690716 22.634261 22.860185 24.777538 
C 21.029653 26.920815 19.751016 29.479771 19.136158 32.230485 
C 18.521301 34.9812 18.588696 37.84103 19.332448 40.559727 
C 20.076199 43.278424 21.473961 45.774307 23.403422 47.828974 
L 36 36 
L 53.28 36 
z
" style="fill:#f88b10;"/>
   </g>
   <g id="patch_13">
    <path d="M 23.403422 47.828974 
C 25.458695 50.017617 28.049328 51.633282 30.918984 52.516104 
C 33.78864 53.398925 36.839441 53.518791 39.769516 52.863841 
C 42.699592 52.208892 45.409002 50.801465 47.629657 48.780824 
C 49.850312 46.760183 51.50647 44.195247 52.434257 41.339812 
L 36 36 
L 23.403422 47.828974 
z
" style="fill:#5d77fe;"/>
   </g>
   <g id="patch_14">
    <path d="M 52.434257 41.339812 
C 52.713993 40.478874 52.925644 39.597284 53.067255 38.703186 
C 53.208866 37.809087 53.28 36.905242 53.28 35.999998 
L 36 36 
L 52.434257 41.339812 
z
" style="fill:#98161a;"/>
   </g>
   <g id="patch_15">
    <path d="M 53.28 35.999998 
C 53.28 35.999998 53.28 35.999998 53.28 35.999998 
L 36 36 
L 53.28 35.999998 
z
" style="fill:#103129;"/>
   </g>
  </g>
 </g>
</svg>
