<?xml version="1.0" encoding="utf-8" standalone="no"?>
<!DOCTYPE svg PUBLIC "-//W3C//DTD SVG 1.1//EN"
  "http://www.w3.org/Graphics/SVG/1.1/DTD/svg11.dtd">
<!-- Created with matplotlib (http://matplotlib.org/) -->
<svg height="72pt" version="1.1" viewBox="0 0 72 72" width="72pt" xmlns="http://www.w3.org/2000/svg" xmlns:xlink="http://www.w3.org/1999/xlink">
 <defs>
  <style type="text/css">
*{stroke-linecap:butt;stroke-linejoin:round;}
  </style>
 </defs>
 <g id="figure_1">
  <g id="patch_1">
   <path d="M 0 72 
L 72 72 
L 72 0 
L 0 0 
z
" style="fill:#ffffff;"/>
  </g>
  <g id="axes_1">
   <g id="patch_2">
    <path d="M 61.92 36 
C 61.92 32.596217 61.249529 29.225531 59.946957 26.080845 
C 58.644386 22.93616 56.735046 20.07863 54.328208 17.671792 
C 51.92137 15.264954 49.06384 13.355614 45.919155 12.053043 
C 42.774469 10.750471 39.403783 10.08 36 10.08 
C 32.596217 10.08 29.225531 10.750471 26.080845 12.053043 
C 22.93616 13.355614 20.07863 15.264954 17.671792 17.671792 
C 15.264954 20.07863 13.355614 22.93616 12.053043 26.080845 
C 10.750471 29.225531 10.08 32.596217 10.08 36 
C 10.08 39.403783 10.750471 42.774469 12.053043 45.919155 
C 13.355614 49.06384 15.264954 51.92137 17.671792 54.328208 
C 20.07863 56.735046 22.93616 58.644386 26.080845 59.946957 
C 29.225531 61.249529 32.596217 61.92 36 61.92 
C 39.403783 61.92 42.774469 61.249529 45.919155 59.946957 
C 49.06384 58.644386 51.92137 56.735046 54.328208 54.328208 
C 56.735046 51.92137 58.644386 49.06384 59.946957 45.919155 
C 61.249529 42.774469 61.92 39.403783 61.92 36 
M 36 36 
M 61.92 36 
z
" style="fill:#278c18;"/>
   </g>
   <g id="patch_3">
    <path d="M 59.04 36 
C 59.04 36 59.04 36 59.04 36 
L 36 36 
L 59.04 36 
z
" style="fill:#278c18;"/>
   </g>
   <g id="patch_4">
    <path d="M 59.04 36 
C 59.04 31.751294 57.864772 27.58425 55.644829 23.961633 
C 53.424887 20.339016 50.245566 17.400082 46.459941 15.47121 
C 42.674317 13.542338 38.427911 12.697675 34.192303 13.031025 
C 29.956695 13.364374 25.894704 14.862922 22.457428 17.360248 
L 36 36 
L 59.04 36 
z
" style="fill:#67c8f3;"/>
   </g>
   <g id="patch_5">
    <path d="M 22.457428 17.360248 
C 19.268389 19.677221 16.726684 22.774296 15.076382 26.354078 
C 13.426079 29.933861 12.721749 33.877977 13.031024 37.807696 
C 13.3403 41.737414 14.652954 45.522791 16.842939 48.800336 
C 19.032924 52.077882 22.027825 54.739217 25.540057 56.528789 
C 29.052288 58.318361 32.965712 59.176994 36.904543 59.022237 
C 40.843374 58.867481 44.677367 57.704452 48.038364 55.644831 
C 51.399361 53.58521 54.176224 50.697102 56.102306 47.257837 
C 58.028388 43.818571 59.039999 39.941874 59.04 36.000004 
L 36 36 
L 22.457428 17.360248 
z
" style="fill:#103129;"/>
   </g>
   <g id="patch_6">
    <path d="M 56.16 36 
C 56.16 36 56.16 36 56.16 36 
L 36 36 
L 56.16 36 
z
" style="fill:#278c18;"/>
   </g>
   <g id="patch_7">
    <path d="M 56.16 36 
C 56.16 33.246003 55.595677 30.520992 54.501933 27.993499 
C 53.408189 25.466006 51.808047 23.189233 49.80047 21.303993 
C 47.792893 19.418752 45.42014 17.964727 42.828957 17.031844 
C 40.237775 16.098961 37.482707 15.706856 34.734144 15.879781 
L 36 36 
L 56.16 36 
z
" style="fill:#67c8f3;"/>
   </g>
   <g id="patch_8">
    <path d="M 34.734144 15.879781 
C 32.834706 15.999284 30.961723 16.387159 29.171044 17.031843 
C 27.380366 17.676527 25.689966 18.571548 24.15025 19.690217 
L 36 36 
L 34.734144 15.879781 
z
" style="fill:#f88b10;"/>
   </g>
   <g id="patch_9">
    <path d="M 24.15025 19.690217 
C 21.35984 21.717568 19.135849 24.427509 17.691834 27.559819 
C 16.24782 30.692128 15.631531 34.14323 15.902146 37.581734 
C 16.172762 41.020237 17.321334 44.332442 19.237572 47.200294 
C 21.153809 50.068146 23.774347 52.396815 26.84755 53.96269 
C 29.920752 55.528566 33.344998 56.279869 36.791475 56.144457 
C 40.237952 56.009045 43.592696 54.991396 46.533568 53.189227 
C 49.474441 51.387059 51.904196 48.859964 53.589518 45.850607 
C 55.27484 42.84125 56.159999 39.44914 56.16 36.000004 
L 36 36 
L 24.15025 19.690217 
z
" style="fill:#103129;"/>
   </g>
   <g id="patch_10">
    <path d="M 53.28 36 
C 53.28 36 53.28 36 53.28 36 
L 36 36 
L 53.28 36 
z
" style="fill:#278c18;"/>
   </g>
   <g id="patch_11">
    <path d="M 53.28 36 
C 53.28 33.639431 52.796295 31.303707 51.8588 29.137285 
C 50.921305 26.970862 49.549755 25.019343 47.828974 23.403422 
C 46.108194 21.787502 44.074405 20.541195 41.853392 19.741581 
C 39.632378 18.941966 37.270891 18.605877 34.914981 18.754098 
L 36 36 
L 53.28 36 
z
" style="fill:#67c8f3;"/>
   </g>
   <g id="patch_12">
    <path d="M 34.914981 18.754098 
C 34.734378 18.765461 34.553966 18.779659 34.373809 18.796689 
C 34.193653 18.813719 34.013775 18.833578 33.834243 18.856258 
L 36 36 
L 34.914981 18.754098 
z
" style="fill:#f88b10;"/>
   </g>
   <g id="patch_13">
    <path d="M 33.834243 18.856258 
C 32.936137 18.969715 32.048334 19.15357 31.179035 19.406125 
C 30.309735 19.65868 29.461624 19.979154 28.642535 20.364588 
L 36 36 
L 33.834243 18.856258 
z
" style="fill:#5d77fe;"/>
   </g>
   <g id="patch_14">
    <path d="M 28.642535 20.364588 
C 28.151243 20.595772 27.67112 20.849984 27.203765 21.126377 
C 26.73641 21.40277 26.282342 21.701037 25.843072 22.020186 
L 36 36 
L 28.642535 20.364588 
z
" style="fill:#98161a;"/>
   </g>
   <g id="patch_15">
    <path d="M 25.843072 22.020186 
C 23.451292 23.757915 21.545013 26.080722 20.307287 28.765558 
C 19.06956 31.450395 18.541312 34.408483 18.773268 37.355771 
C 19.005225 40.30306 19.989715 43.142093 21.632204 45.600252 
C 23.274693 48.058411 25.520868 50.054413 28.155042 51.396592 
C 30.789216 52.738771 33.724284 53.382745 36.678407 53.266678 
C 39.63253 53.15061 42.508025 52.278339 45.028773 50.733624 
C 47.54952 49.188908 49.632168 47.022827 51.076729 44.443378 
C 52.521291 41.863929 53.279999 38.956406 53.28 36.000004 
L 36 36 
L 25.843072 22.020186 
z
" style="fill:#103129;"/>
   </g>
  </g>
 </g>
</svg>
